<mxfile host="Electron" agent="Mozilla/5.0 (Windows NT 10.0; Win64; x64) AppleWebKit/537.36 (KHTML, like Gecko) draw.io/26.2.2 Chrome/134.0.6998.178 Electron/35.1.2 Safari/537.36" version="26.2.2">
  <diagram name="Page-1" id="099fd60b-425b-db50-ffb0-6b813814b670">
    <mxGraphModel dx="630" dy="450" grid="1" gridSize="10" guides="1" tooltips="1" connect="1" arrows="1" fold="1" page="1" pageScale="1" pageWidth="850" pageHeight="1100" background="none" math="0" shadow="0">
      <root>
        <mxCell id="0" />
        <mxCell id="1" parent="0" />
        <mxCell id="cdUcmmIa8sY7cMpKoN9_-14" value="" style="group" parent="1" vertex="1" connectable="0">
          <mxGeometry x="120" y="600" width="200" height="60" as="geometry" />
        </mxCell>
        <mxCell id="cdUcmmIa8sY7cMpKoN9_-11" value="Adresse Daten" style="text;html=1;align=center;verticalAlign=middle;resizable=0;points=[];autosize=1;strokeColor=none;fillColor=none;" parent="cdUcmmIa8sY7cMpKoN9_-14" vertex="1">
          <mxGeometry x="50" width="100" height="30" as="geometry" />
        </mxCell>
        <mxCell id="cdUcmmIa8sY7cMpKoN9_-34" value="" style="group" parent="cdUcmmIa8sY7cMpKoN9_-14" vertex="1" connectable="0">
          <mxGeometry x="20" y="30" width="160" height="20" as="geometry" />
        </mxCell>
        <mxCell id="cdUcmmIa8sY7cMpKoN9_-26" value="" style="rounded=0;whiteSpace=wrap;html=1;" parent="cdUcmmIa8sY7cMpKoN9_-34" vertex="1">
          <mxGeometry x="20" width="20" height="20" as="geometry" />
        </mxCell>
        <mxCell id="cdUcmmIa8sY7cMpKoN9_-27" value="" style="rounded=0;whiteSpace=wrap;html=1;" parent="cdUcmmIa8sY7cMpKoN9_-34" vertex="1">
          <mxGeometry width="20" height="20" as="geometry" />
        </mxCell>
        <mxCell id="cdUcmmIa8sY7cMpKoN9_-28" value="" style="rounded=0;whiteSpace=wrap;html=1;" parent="cdUcmmIa8sY7cMpKoN9_-34" vertex="1">
          <mxGeometry x="60" width="20" height="20" as="geometry" />
        </mxCell>
        <mxCell id="cdUcmmIa8sY7cMpKoN9_-29" value="" style="rounded=0;whiteSpace=wrap;html=1;" parent="cdUcmmIa8sY7cMpKoN9_-34" vertex="1">
          <mxGeometry x="40" width="20" height="20" as="geometry" />
        </mxCell>
        <mxCell id="cdUcmmIa8sY7cMpKoN9_-30" value="" style="rounded=0;whiteSpace=wrap;html=1;" parent="cdUcmmIa8sY7cMpKoN9_-34" vertex="1">
          <mxGeometry x="100" width="20" height="20" as="geometry" />
        </mxCell>
        <mxCell id="cdUcmmIa8sY7cMpKoN9_-31" value="" style="rounded=0;whiteSpace=wrap;html=1;" parent="cdUcmmIa8sY7cMpKoN9_-34" vertex="1">
          <mxGeometry x="80" width="20" height="20" as="geometry" />
        </mxCell>
        <mxCell id="cdUcmmIa8sY7cMpKoN9_-32" value="" style="rounded=0;whiteSpace=wrap;html=1;" parent="cdUcmmIa8sY7cMpKoN9_-34" vertex="1">
          <mxGeometry x="140" width="20" height="20" as="geometry" />
        </mxCell>
        <mxCell id="cdUcmmIa8sY7cMpKoN9_-33" value="" style="rounded=0;whiteSpace=wrap;html=1;" parent="cdUcmmIa8sY7cMpKoN9_-34" vertex="1">
          <mxGeometry x="120" width="20" height="20" as="geometry" />
        </mxCell>
        <mxCell id="cdUcmmIa8sY7cMpKoN9_-85" value="" style="shape=flexArrow;endArrow=classic;startArrow=classic;html=1;rounded=0;entryX=0;entryY=1;entryDx=0;entryDy=0;" parent="1" target="cdUcmmIa8sY7cMpKoN9_-31" edge="1">
          <mxGeometry width="100" height="100" relative="1" as="geometry">
            <mxPoint y="690" as="sourcePoint" />
            <mxPoint x="220" y="660" as="targetPoint" />
            <Array as="points">
              <mxPoint x="110" y="690" />
              <mxPoint x="220" y="690" />
            </Array>
          </mxGeometry>
        </mxCell>
        <mxCell id="cdUcmmIa8sY7cMpKoN9_-37" value="" style="group" parent="1" vertex="1" connectable="0">
          <mxGeometry x="140" y="760" width="160" height="20" as="geometry" />
        </mxCell>
        <mxCell id="cdUcmmIa8sY7cMpKoN9_-38" value="" style="rounded=0;whiteSpace=wrap;html=1;" parent="cdUcmmIa8sY7cMpKoN9_-37" vertex="1">
          <mxGeometry x="20" width="20" height="20" as="geometry" />
        </mxCell>
        <mxCell id="cdUcmmIa8sY7cMpKoN9_-39" value="" style="rounded=0;whiteSpace=wrap;html=1;" parent="cdUcmmIa8sY7cMpKoN9_-37" vertex="1">
          <mxGeometry width="20" height="20" as="geometry" />
        </mxCell>
        <mxCell id="cdUcmmIa8sY7cMpKoN9_-40" value="" style="rounded=0;whiteSpace=wrap;html=1;" parent="cdUcmmIa8sY7cMpKoN9_-37" vertex="1">
          <mxGeometry x="60" width="20" height="20" as="geometry" />
        </mxCell>
        <mxCell id="cdUcmmIa8sY7cMpKoN9_-41" value="" style="rounded=0;whiteSpace=wrap;html=1;" parent="cdUcmmIa8sY7cMpKoN9_-37" vertex="1">
          <mxGeometry x="40" width="20" height="20" as="geometry" />
        </mxCell>
        <mxCell id="cdUcmmIa8sY7cMpKoN9_-42" value="" style="rounded=0;whiteSpace=wrap;html=1;" parent="cdUcmmIa8sY7cMpKoN9_-37" vertex="1">
          <mxGeometry x="100" width="20" height="20" as="geometry" />
        </mxCell>
        <mxCell id="cdUcmmIa8sY7cMpKoN9_-43" value="" style="rounded=0;whiteSpace=wrap;html=1;" parent="cdUcmmIa8sY7cMpKoN9_-37" vertex="1">
          <mxGeometry x="80" width="20" height="20" as="geometry" />
        </mxCell>
        <mxCell id="cdUcmmIa8sY7cMpKoN9_-44" value="" style="rounded=0;whiteSpace=wrap;html=1;" parent="cdUcmmIa8sY7cMpKoN9_-37" vertex="1">
          <mxGeometry x="140" width="20" height="20" as="geometry" />
        </mxCell>
        <mxCell id="cdUcmmIa8sY7cMpKoN9_-45" value="" style="rounded=0;whiteSpace=wrap;html=1;" parent="cdUcmmIa8sY7cMpKoN9_-37" vertex="1">
          <mxGeometry x="120" width="20" height="20" as="geometry" />
        </mxCell>
        <mxCell id="cdUcmmIa8sY7cMpKoN9_-36" value="Daten" style="text;html=1;align=center;verticalAlign=middle;resizable=0;points=[];autosize=1;strokeColor=none;fillColor=none;" parent="1" vertex="1">
          <mxGeometry x="190" y="730" width="60" height="30" as="geometry" />
        </mxCell>
        <mxCell id="cdUcmmIa8sY7cMpKoN9_-86" value="" style="shape=flexArrow;endArrow=classic;startArrow=classic;html=1;rounded=0;entryX=0;entryY=1;entryDx=0;entryDy=0;" parent="1" edge="1">
          <mxGeometry width="100" height="100" relative="1" as="geometry">
            <mxPoint y="820" as="sourcePoint" />
            <mxPoint x="220" y="780" as="targetPoint" />
            <Array as="points">
              <mxPoint x="110" y="820" />
              <mxPoint x="220" y="820" />
            </Array>
          </mxGeometry>
        </mxCell>
        <mxCell id="cdUcmmIa8sY7cMpKoN9_-181" value="A" style="text;html=1;align=center;verticalAlign=middle;resizable=0;points=[];autosize=1;strokeColor=none;fillColor=none;" parent="1" vertex="1">
          <mxGeometry x="475" y="394" width="30" height="30" as="geometry" />
        </mxCell>
        <mxCell id="cdUcmmIa8sY7cMpKoN9_-202" value="B" style="text;html=1;align=center;verticalAlign=middle;resizable=0;points=[];autosize=1;strokeColor=none;fillColor=none;" parent="1" vertex="1">
          <mxGeometry x="685" y="394" width="30" height="30" as="geometry" />
        </mxCell>
        <mxCell id="cdUcmmIa8sY7cMpKoN9_-203" value="" style="endArrow=classic;html=1;rounded=0;exitX=1;exitY=0.5;exitDx=0;exitDy=0;entryX=0;entryY=0.5;entryDx=0;entryDy=0;" parent="1" source="cdUcmmIa8sY7cMpKoN9_-44" target="cdUcmmIa8sY7cMpKoN9_-174" edge="1">
          <mxGeometry width="50" height="50" relative="1" as="geometry">
            <mxPoint x="350" y="620" as="sourcePoint" />
            <mxPoint x="410" y="540" as="targetPoint" />
            <Array as="points">
              <mxPoint x="370" y="770" />
              <mxPoint x="370" y="670" />
              <mxPoint x="370" y="434" />
            </Array>
          </mxGeometry>
        </mxCell>
        <mxCell id="cdUcmmIa8sY7cMpKoN9_-204" value="" style="endArrow=classic;html=1;rounded=0;entryX=0;entryY=0.5;entryDx=0;entryDy=0;" parent="1" target="cdUcmmIa8sY7cMpKoN9_-195" edge="1">
          <mxGeometry width="50" height="50" relative="1" as="geometry">
            <mxPoint x="370" y="434" as="sourcePoint" />
            <mxPoint x="420" y="444" as="targetPoint" />
            <Array as="points">
              <mxPoint x="370" y="380" />
              <mxPoint x="590" y="380" />
              <mxPoint x="590" y="434" />
            </Array>
          </mxGeometry>
        </mxCell>
        <mxCell id="cdUcmmIa8sY7cMpKoN9_-210" value="" style="shape=image;aspect=fixed;image=data:image/svg+xml,PD94bWwgdmVyc2lvbj0iMS4wIiBlbmNvZGluZz0iVVRGLTgiIHN0YW5kYWxvbmU9Im5vIj8+CjwhLS0gQ3JlYXRlZCB3aXRoIElua3NjYXBlIChodHRwOi8vd3d3Lmlua3NjYXBlLm9yZy8pIC0tPgoKPHN2ZwogICB3aWR0aD0iNjUuMTg2NzIybW0iCiAgIGhlaWdodD0iNDMuMjMzMDIxbW0iCiAgIHZpZXdCb3g9IjAgMCA2NS4xODY3MjIgNDMuMjMzMDIxIgogICB2ZXJzaW9uPSIxLjEiCiAgIGlkPSJzdmcxIgogICBpbmtzY2FwZTp2ZXJzaW9uPSIxLjMgKDBlMTUwZWQ2YzQsIDIwMjMtMDctMjEpIgogICBzb2RpcG9kaTpkb2NuYW1lPSJBTFUuc3ZnIgogICB4bWxuczppbmtzY2FwZT0iaHR0cDovL3d3dy5pbmtzY2FwZS5vcmcvbmFtZXNwYWNlcy9pbmtzY2FwZSIKICAgeG1sbnM6c29kaXBvZGk9Imh0dHA6Ly9zb2RpcG9kaS5zb3VyY2Vmb3JnZS5uZXQvRFREL3NvZGlwb2RpLTAuZHRkIgogICB4bWxucz0iaHR0cDovL3d3dy53My5vcmcvMjAwMC9zdmciCiAgIHhtbG5zOnN2Zz0iaHR0cDovL3d3dy53My5vcmcvMjAwMC9zdmciPgogIDxzb2RpcG9kaTpuYW1lZHZpZXcKICAgICBpZD0ibmFtZWR2aWV3MSIKICAgICBwYWdlY29sb3I9IiNmZmZmZmYiCiAgICAgYm9yZGVyY29sb3I9IiMwMDAwMDAiCiAgICAgYm9yZGVyb3BhY2l0eT0iMC4yNSIKICAgICBpbmtzY2FwZTpzaG93cGFnZXNoYWRvdz0iMiIKICAgICBpbmtzY2FwZTpwYWdlb3BhY2l0eT0iMC4wIgogICAgIGlua3NjYXBlOnBhZ2VjaGVja2VyYm9hcmQ9IjAiCiAgICAgaW5rc2NhcGU6ZGVza2NvbG9yPSIjZDFkMWQxIgogICAgIGlua3NjYXBlOmRvY3VtZW50LXVuaXRzPSJtbSIKICAgICBzaG93Z3VpZGVzPSJmYWxzZSIKICAgICBpbmtzY2FwZTp6b29tPSIxLjQ1NTY1MzgiCiAgICAgaW5rc2NhcGU6Y3g9IjE1My4xOTU3NyIKICAgICBpbmtzY2FwZTpjeT0iNzEuNzg5MDUiCiAgICAgaW5rc2NhcGU6d2luZG93LXdpZHRoPSIxOTIwIgogICAgIGlua3NjYXBlOndpbmRvdy1oZWlnaHQ9IjEwOTQiCiAgICAgaW5rc2NhcGU6d2luZG93LXg9Ii0xMSIKICAgICBpbmtzY2FwZTp3aW5kb3cteT0iLTExIgogICAgIGlua3NjYXBlOndpbmRvdy1tYXhpbWl6ZWQ9IjEiCiAgICAgaW5rc2NhcGU6Y3VycmVudC1sYXllcj0ibGF5ZXIxIiAvPgogIDxkZWZzCiAgICAgaWQ9ImRlZnMxIiAvPgogIDxnCiAgICAgaW5rc2NhcGU6bGFiZWw9IkViZW5lIDEiCiAgICAgaW5rc2NhcGU6Z3JvdXBtb2RlPSJsYXllciIKICAgICBpZD0ibGF5ZXIxIgogICAgIHRyYW5zZm9ybT0idHJhbnNsYXRlKC01OS41NzE1NTgsLTY3LjcwMzM2MSkiPgogICAgPHBhdGgKICAgICAgIGlkPSJwYXRoMSIKICAgICAgIHN0eWxlPSJmaWxsOiMwMDAwMDA7ZmlsbC1vcGFjaXR5OjE7c3Ryb2tlLXdpZHRoOjAiCiAgICAgICBkPSJtIDU5LjU3MTU1OCw2Ny43MDMzNjEgMjQuNzE5OTM4LDQzLjIzMzAxOSBoIDE1Ljc0NzM2NCBsIDI0LjcxOTQyLC00My4yMzMwMTkgaCAtMTguMjY0IEwgOTIuMTY3NDk3LDkyLjc2MDIyOSBoIC0wLjAwNTIgTCA3Ny44MzU1NTksNjcuNzAzMzYxIFoiCiAgICAgICBzb2RpcG9kaTpub2RldHlwZXM9ImNjY2NjY2NjYyIgLz4KICA8L2c+Cjwvc3ZnPgo=;" parent="1" vertex="1">
          <mxGeometry x="460" y="454" width="280" height="185.52" as="geometry" />
        </mxCell>
        <mxCell id="cdUcmmIa8sY7cMpKoN9_-211" value="" style="group" parent="1" vertex="1" connectable="0">
          <mxGeometry x="410" y="424" width="370" height="20" as="geometry" />
        </mxCell>
        <mxCell id="cdUcmmIa8sY7cMpKoN9_-172" value="" style="group" parent="cdUcmmIa8sY7cMpKoN9_-211" vertex="1" connectable="0">
          <mxGeometry width="160" height="20" as="geometry" />
        </mxCell>
        <mxCell id="cdUcmmIa8sY7cMpKoN9_-173" value="" style="rounded=0;whiteSpace=wrap;html=1;" parent="cdUcmmIa8sY7cMpKoN9_-172" vertex="1">
          <mxGeometry x="20" width="20" height="20" as="geometry" />
        </mxCell>
        <mxCell id="cdUcmmIa8sY7cMpKoN9_-174" value="" style="rounded=0;whiteSpace=wrap;html=1;" parent="cdUcmmIa8sY7cMpKoN9_-172" vertex="1">
          <mxGeometry width="20" height="20" as="geometry" />
        </mxCell>
        <mxCell id="cdUcmmIa8sY7cMpKoN9_-175" value="" style="rounded=0;whiteSpace=wrap;html=1;" parent="cdUcmmIa8sY7cMpKoN9_-172" vertex="1">
          <mxGeometry x="60" width="20" height="20" as="geometry" />
        </mxCell>
        <mxCell id="cdUcmmIa8sY7cMpKoN9_-176" value="" style="rounded=0;whiteSpace=wrap;html=1;" parent="cdUcmmIa8sY7cMpKoN9_-172" vertex="1">
          <mxGeometry x="40" width="20" height="20" as="geometry" />
        </mxCell>
        <mxCell id="cdUcmmIa8sY7cMpKoN9_-177" value="" style="rounded=0;whiteSpace=wrap;html=1;" parent="cdUcmmIa8sY7cMpKoN9_-172" vertex="1">
          <mxGeometry x="100" width="20" height="20" as="geometry" />
        </mxCell>
        <mxCell id="cdUcmmIa8sY7cMpKoN9_-178" value="" style="rounded=0;whiteSpace=wrap;html=1;" parent="cdUcmmIa8sY7cMpKoN9_-172" vertex="1">
          <mxGeometry x="80" width="20" height="20" as="geometry" />
        </mxCell>
        <mxCell id="cdUcmmIa8sY7cMpKoN9_-179" value="" style="rounded=0;whiteSpace=wrap;html=1;" parent="cdUcmmIa8sY7cMpKoN9_-172" vertex="1">
          <mxGeometry x="140" width="20" height="20" as="geometry" />
        </mxCell>
        <mxCell id="cdUcmmIa8sY7cMpKoN9_-180" value="" style="rounded=0;whiteSpace=wrap;html=1;" parent="cdUcmmIa8sY7cMpKoN9_-172" vertex="1">
          <mxGeometry x="120" width="20" height="20" as="geometry" />
        </mxCell>
        <mxCell id="cdUcmmIa8sY7cMpKoN9_-193" value="" style="group" parent="cdUcmmIa8sY7cMpKoN9_-211" vertex="1" connectable="0">
          <mxGeometry x="210" width="160" height="20" as="geometry" />
        </mxCell>
        <mxCell id="cdUcmmIa8sY7cMpKoN9_-194" value="" style="rounded=0;whiteSpace=wrap;html=1;" parent="cdUcmmIa8sY7cMpKoN9_-193" vertex="1">
          <mxGeometry x="20" width="20" height="20" as="geometry" />
        </mxCell>
        <mxCell id="cdUcmmIa8sY7cMpKoN9_-195" value="" style="rounded=0;whiteSpace=wrap;html=1;" parent="cdUcmmIa8sY7cMpKoN9_-193" vertex="1">
          <mxGeometry width="20" height="20" as="geometry" />
        </mxCell>
        <mxCell id="cdUcmmIa8sY7cMpKoN9_-196" value="" style="rounded=0;whiteSpace=wrap;html=1;" parent="cdUcmmIa8sY7cMpKoN9_-193" vertex="1">
          <mxGeometry x="60" width="20" height="20" as="geometry" />
        </mxCell>
        <mxCell id="cdUcmmIa8sY7cMpKoN9_-197" value="" style="rounded=0;whiteSpace=wrap;html=1;" parent="cdUcmmIa8sY7cMpKoN9_-193" vertex="1">
          <mxGeometry x="40" width="20" height="20" as="geometry" />
        </mxCell>
        <mxCell id="cdUcmmIa8sY7cMpKoN9_-198" value="" style="rounded=0;whiteSpace=wrap;html=1;" parent="cdUcmmIa8sY7cMpKoN9_-193" vertex="1">
          <mxGeometry x="100" width="20" height="20" as="geometry" />
        </mxCell>
        <mxCell id="cdUcmmIa8sY7cMpKoN9_-199" value="" style="rounded=0;whiteSpace=wrap;html=1;" parent="cdUcmmIa8sY7cMpKoN9_-193" vertex="1">
          <mxGeometry x="80" width="20" height="20" as="geometry" />
        </mxCell>
        <mxCell id="cdUcmmIa8sY7cMpKoN9_-200" value="" style="rounded=0;whiteSpace=wrap;html=1;" parent="cdUcmmIa8sY7cMpKoN9_-193" vertex="1">
          <mxGeometry x="140" width="20" height="20" as="geometry" />
        </mxCell>
        <mxCell id="cdUcmmIa8sY7cMpKoN9_-201" value="" style="rounded=0;whiteSpace=wrap;html=1;" parent="cdUcmmIa8sY7cMpKoN9_-193" vertex="1">
          <mxGeometry x="120" width="20" height="20" as="geometry" />
        </mxCell>
        <mxCell id="cdUcmmIa8sY7cMpKoN9_-235" value="" style="endArrow=none;html=1;rounded=0;startFill=0;" parent="1" edge="1">
          <mxGeometry width="50" height="50" relative="1" as="geometry">
            <mxPoint x="600" y="640" as="sourcePoint" />
            <mxPoint x="120" y="830" as="targetPoint" />
            <Array as="points">
              <mxPoint x="600" y="840" />
              <mxPoint x="120" y="840" />
            </Array>
          </mxGeometry>
        </mxCell>
        <mxCell id="cdUcmmIa8sY7cMpKoN9_-236" value="" style="curved=1;endArrow=none;html=1;rounded=0;startFill=0;" parent="1" edge="1">
          <mxGeometry width="50" height="50" relative="1" as="geometry">
            <mxPoint x="120" y="830" as="sourcePoint" />
            <mxPoint x="120" y="810" as="targetPoint" />
            <Array as="points">
              <mxPoint x="110" y="830" />
              <mxPoint x="110" y="810" />
            </Array>
          </mxGeometry>
        </mxCell>
        <mxCell id="cdUcmmIa8sY7cMpKoN9_-238" value="" style="endArrow=classic;html=1;rounded=0;entryX=0;entryY=0.5;entryDx=0;entryDy=0;" parent="1" target="cdUcmmIa8sY7cMpKoN9_-39" edge="1">
          <mxGeometry width="50" height="50" relative="1" as="geometry">
            <mxPoint x="120" y="810" as="sourcePoint" />
            <mxPoint x="150" y="680" as="targetPoint" />
            <Array as="points">
              <mxPoint x="120" y="800" />
              <mxPoint x="120" y="770" />
            </Array>
          </mxGeometry>
        </mxCell>
        <mxCell id="cdUcmmIa8sY7cMpKoN9_-122" value="" style="group" parent="1" vertex="1" connectable="0">
          <mxGeometry x="120" y="410" width="200" height="60" as="geometry" />
        </mxCell>
        <mxCell id="cdUcmmIa8sY7cMpKoN9_-123" value="Adresse Programmcounter" style="text;html=1;align=center;verticalAlign=middle;resizable=0;points=[];autosize=1;strokeColor=none;fillColor=none;" parent="cdUcmmIa8sY7cMpKoN9_-122" vertex="1">
          <mxGeometry x="30" y="-20" width="170" height="30" as="geometry" />
        </mxCell>
        <mxCell id="cdUcmmIa8sY7cMpKoN9_-124" value="" style="group" parent="cdUcmmIa8sY7cMpKoN9_-122" vertex="1" connectable="0">
          <mxGeometry x="20" y="14" width="160" height="20" as="geometry" />
        </mxCell>
        <mxCell id="cdUcmmIa8sY7cMpKoN9_-125" value="" style="rounded=0;whiteSpace=wrap;html=1;" parent="cdUcmmIa8sY7cMpKoN9_-124" vertex="1">
          <mxGeometry x="20" width="20" height="20" as="geometry" />
        </mxCell>
        <mxCell id="cdUcmmIa8sY7cMpKoN9_-126" value="" style="rounded=0;whiteSpace=wrap;html=1;" parent="cdUcmmIa8sY7cMpKoN9_-124" vertex="1">
          <mxGeometry width="20" height="20" as="geometry" />
        </mxCell>
        <mxCell id="cdUcmmIa8sY7cMpKoN9_-127" value="" style="rounded=0;whiteSpace=wrap;html=1;" parent="cdUcmmIa8sY7cMpKoN9_-124" vertex="1">
          <mxGeometry x="60" width="20" height="20" as="geometry" />
        </mxCell>
        <mxCell id="cdUcmmIa8sY7cMpKoN9_-128" value="" style="rounded=0;whiteSpace=wrap;html=1;" parent="cdUcmmIa8sY7cMpKoN9_-124" vertex="1">
          <mxGeometry x="40" width="20" height="20" as="geometry" />
        </mxCell>
        <mxCell id="cdUcmmIa8sY7cMpKoN9_-129" value="" style="rounded=0;whiteSpace=wrap;html=1;" parent="cdUcmmIa8sY7cMpKoN9_-124" vertex="1">
          <mxGeometry x="100" width="20" height="20" as="geometry" />
        </mxCell>
        <mxCell id="cdUcmmIa8sY7cMpKoN9_-130" value="" style="rounded=0;whiteSpace=wrap;html=1;" parent="cdUcmmIa8sY7cMpKoN9_-124" vertex="1">
          <mxGeometry x="80" width="20" height="20" as="geometry" />
        </mxCell>
        <mxCell id="cdUcmmIa8sY7cMpKoN9_-131" value="" style="rounded=0;whiteSpace=wrap;html=1;" parent="cdUcmmIa8sY7cMpKoN9_-124" vertex="1">
          <mxGeometry x="140" width="20" height="20" as="geometry" />
        </mxCell>
        <mxCell id="cdUcmmIa8sY7cMpKoN9_-132" value="" style="rounded=0;whiteSpace=wrap;html=1;" parent="cdUcmmIa8sY7cMpKoN9_-124" vertex="1">
          <mxGeometry x="120" width="20" height="20" as="geometry" />
        </mxCell>
        <mxCell id="cdUcmmIa8sY7cMpKoN9_-161" value="" style="group" parent="1" vertex="1" connectable="0">
          <mxGeometry x="140" y="530" width="160" height="20" as="geometry" />
        </mxCell>
        <mxCell id="cdUcmmIa8sY7cMpKoN9_-162" value="" style="rounded=0;whiteSpace=wrap;html=1;" parent="cdUcmmIa8sY7cMpKoN9_-161" vertex="1">
          <mxGeometry x="20" width="20" height="20" as="geometry" />
        </mxCell>
        <mxCell id="cdUcmmIa8sY7cMpKoN9_-163" value="" style="rounded=0;whiteSpace=wrap;html=1;" parent="cdUcmmIa8sY7cMpKoN9_-161" vertex="1">
          <mxGeometry width="20" height="20" as="geometry" />
        </mxCell>
        <mxCell id="cdUcmmIa8sY7cMpKoN9_-164" value="" style="rounded=0;whiteSpace=wrap;html=1;" parent="cdUcmmIa8sY7cMpKoN9_-161" vertex="1">
          <mxGeometry x="60" width="20" height="20" as="geometry" />
        </mxCell>
        <mxCell id="cdUcmmIa8sY7cMpKoN9_-165" value="" style="rounded=0;whiteSpace=wrap;html=1;" parent="cdUcmmIa8sY7cMpKoN9_-161" vertex="1">
          <mxGeometry x="40" width="20" height="20" as="geometry" />
        </mxCell>
        <mxCell id="cdUcmmIa8sY7cMpKoN9_-166" value="" style="rounded=0;whiteSpace=wrap;html=1;" parent="cdUcmmIa8sY7cMpKoN9_-161" vertex="1">
          <mxGeometry x="100" width="20" height="20" as="geometry" />
        </mxCell>
        <mxCell id="cdUcmmIa8sY7cMpKoN9_-167" value="" style="rounded=0;whiteSpace=wrap;html=1;" parent="cdUcmmIa8sY7cMpKoN9_-161" vertex="1">
          <mxGeometry x="80" width="20" height="20" as="geometry" />
        </mxCell>
        <mxCell id="cdUcmmIa8sY7cMpKoN9_-168" value="" style="rounded=0;whiteSpace=wrap;html=1;" parent="cdUcmmIa8sY7cMpKoN9_-161" vertex="1">
          <mxGeometry x="140" width="20" height="20" as="geometry" />
        </mxCell>
        <mxCell id="cdUcmmIa8sY7cMpKoN9_-169" value="" style="rounded=0;whiteSpace=wrap;html=1;" parent="cdUcmmIa8sY7cMpKoN9_-161" vertex="1">
          <mxGeometry x="120" width="20" height="20" as="geometry" />
        </mxCell>
        <mxCell id="cdUcmmIa8sY7cMpKoN9_-170" value="Befehl" style="text;html=1;align=center;verticalAlign=middle;resizable=0;points=[];autosize=1;strokeColor=none;fillColor=none;" parent="1" vertex="1">
          <mxGeometry x="190" y="500" width="60" height="30" as="geometry" />
        </mxCell>
        <mxCell id="6YQao_bfGPs_BtrnV_QT-1" value="" style="endArrow=classic;html=1;rounded=0;entryX=0;entryY=0.5;entryDx=0;entryDy=0;" edge="1" parent="1" target="cdUcmmIa8sY7cMpKoN9_-126">
          <mxGeometry width="50" height="50" relative="1" as="geometry">
            <mxPoint x="300" y="770" as="sourcePoint" />
            <mxPoint x="420" y="444" as="targetPoint" />
            <Array as="points">
              <mxPoint x="370" y="770" />
              <mxPoint x="370" y="560" />
              <mxPoint x="370" y="380" />
              <mxPoint x="120" y="380" />
              <mxPoint x="120" y="434" />
            </Array>
          </mxGeometry>
        </mxCell>
        <mxCell id="6YQao_bfGPs_BtrnV_QT-2" value="" style="shape=flexArrow;endArrow=classic;startArrow=classic;html=1;rounded=0;entryX=0;entryY=1;entryDx=0;entryDy=0;" edge="1" parent="1" target="cdUcmmIa8sY7cMpKoN9_-167">
          <mxGeometry width="100" height="100" relative="1" as="geometry">
            <mxPoint y="820" as="sourcePoint" />
            <mxPoint x="230" y="790" as="targetPoint" />
            <Array as="points">
              <mxPoint x="60" y="820" />
              <mxPoint x="60" y="730" />
              <mxPoint x="330" y="730" />
              <mxPoint x="330" y="590" />
              <mxPoint x="220" y="590" />
            </Array>
          </mxGeometry>
        </mxCell>
        <mxCell id="6YQao_bfGPs_BtrnV_QT-5" value="" style="edgeStyle=orthogonalEdgeStyle;rounded=0;orthogonalLoop=1;jettySize=auto;html=1;exitX=1;exitY=0.5;exitDx=0;exitDy=0;" edge="1" parent="1" source="cdUcmmIa8sY7cMpKoN9_-131" target="cdUcmmIa8sY7cMpKoN9_-174">
          <mxGeometry relative="1" as="geometry">
            <Array as="points">
              <mxPoint x="315" y="434" />
            </Array>
          </mxGeometry>
        </mxCell>
        <mxCell id="6YQao_bfGPs_BtrnV_QT-6" value="ALU" style="text;html=1;align=center;verticalAlign=middle;whiteSpace=wrap;rounded=0;" vertex="1" parent="1">
          <mxGeometry x="710" y="540" width="60" height="30" as="geometry" />
        </mxCell>
        <mxCell id="6YQao_bfGPs_BtrnV_QT-36" value="E" style="text;html=1;align=center;verticalAlign=middle;resizable=0;points=[];autosize=1;strokeColor=none;fillColor=none;" vertex="1" parent="1">
          <mxGeometry x="610" y="680" width="30" height="30" as="geometry" />
        </mxCell>
        <mxCell id="6YQao_bfGPs_BtrnV_QT-37" value="LT" style="text;html=1;align=center;verticalAlign=middle;resizable=0;points=[];autosize=1;strokeColor=none;fillColor=none;" vertex="1" parent="1">
          <mxGeometry x="625" y="680" width="40" height="30" as="geometry" />
        </mxCell>
        <mxCell id="6YQao_bfGPs_BtrnV_QT-27" value="" style="rounded=0;whiteSpace=wrap;html=1;" vertex="1" parent="1">
          <mxGeometry x="635" y="660" width="20" height="20" as="geometry" />
        </mxCell>
        <mxCell id="6YQao_bfGPs_BtrnV_QT-28" value="" style="rounded=0;whiteSpace=wrap;html=1;" vertex="1" parent="1">
          <mxGeometry x="615" y="660" width="20" height="20" as="geometry" />
        </mxCell>
        <mxCell id="6YQao_bfGPs_BtrnV_QT-38" value="" style="rounded=0;whiteSpace=wrap;html=1;" vertex="1" parent="1">
          <mxGeometry x="675" y="660" width="20" height="20" as="geometry" />
        </mxCell>
        <mxCell id="6YQao_bfGPs_BtrnV_QT-39" value="" style="rounded=0;whiteSpace=wrap;html=1;" vertex="1" parent="1">
          <mxGeometry x="655" y="660" width="20" height="20" as="geometry" />
        </mxCell>
        <mxCell id="6YQao_bfGPs_BtrnV_QT-40" value="LE" style="text;html=1;align=center;verticalAlign=middle;resizable=0;points=[];autosize=1;strokeColor=none;fillColor=none;" vertex="1" parent="1">
          <mxGeometry x="645" y="680" width="40" height="30" as="geometry" />
        </mxCell>
        <mxCell id="6YQao_bfGPs_BtrnV_QT-41" value="Z" style="text;html=1;align=center;verticalAlign=middle;resizable=0;points=[];autosize=1;strokeColor=none;fillColor=none;" vertex="1" parent="1">
          <mxGeometry x="670" y="680" width="30" height="30" as="geometry" />
        </mxCell>
        <mxCell id="6YQao_bfGPs_BtrnV_QT-42" value="" style="rounded=0;whiteSpace=wrap;html=1;" vertex="1" parent="1">
          <mxGeometry x="695" y="660" width="20" height="20" as="geometry" />
        </mxCell>
        <mxCell id="6YQao_bfGPs_BtrnV_QT-43" value="NZ" style="text;html=1;align=center;verticalAlign=middle;resizable=0;points=[];autosize=1;strokeColor=none;fillColor=none;" vertex="1" parent="1">
          <mxGeometry x="685" y="680" width="40" height="30" as="geometry" />
        </mxCell>
        <mxCell id="6YQao_bfGPs_BtrnV_QT-44" value="" style="rounded=0;whiteSpace=wrap;html=1;" vertex="1" parent="1">
          <mxGeometry x="725" y="660" width="20" height="20" as="geometry" />
        </mxCell>
        <mxCell id="6YQao_bfGPs_BtrnV_QT-45" value="S" style="text;html=1;align=center;verticalAlign=middle;resizable=0;points=[];autosize=1;strokeColor=none;fillColor=none;" vertex="1" parent="1">
          <mxGeometry x="720" y="680" width="30" height="30" as="geometry" />
        </mxCell>
        <mxCell id="6YQao_bfGPs_BtrnV_QT-46" value="" style="edgeStyle=orthogonalEdgeStyle;rounded=0;orthogonalLoop=1;jettySize=auto;html=1;endArrow=none;startFill=0;" edge="1" parent="1">
          <mxGeometry relative="1" as="geometry">
            <mxPoint x="320" y="770" as="sourcePoint" />
            <mxPoint x="340" y="710" as="targetPoint" />
            <Array as="points">
              <mxPoint x="370" y="770" />
              <mxPoint x="370" y="710" />
            </Array>
          </mxGeometry>
        </mxCell>
        <mxCell id="6YQao_bfGPs_BtrnV_QT-48" value="" style="curved=1;endArrow=none;html=1;rounded=0;startFill=0;" edge="1" parent="1">
          <mxGeometry width="50" height="50" relative="1" as="geometry">
            <mxPoint x="120" y="700" as="sourcePoint" />
            <mxPoint x="120" y="680" as="targetPoint" />
            <Array as="points">
              <mxPoint x="110" y="700" />
              <mxPoint x="110" y="680" />
            </Array>
          </mxGeometry>
        </mxCell>
        <mxCell id="6YQao_bfGPs_BtrnV_QT-49" value="" style="endArrow=classic;html=1;rounded=0;entryX=0;entryY=0.5;entryDx=0;entryDy=0;" edge="1" parent="1">
          <mxGeometry width="50" height="50" relative="1" as="geometry">
            <mxPoint x="120" y="680" as="sourcePoint" />
            <mxPoint x="140" y="640" as="targetPoint" />
            <Array as="points">
              <mxPoint x="120" y="670" />
              <mxPoint x="120" y="640" />
            </Array>
          </mxGeometry>
        </mxCell>
        <mxCell id="6YQao_bfGPs_BtrnV_QT-54" value="" style="curved=1;endArrow=none;html=1;rounded=0;startFill=0;" edge="1" parent="1">
          <mxGeometry width="50" height="50" relative="1" as="geometry">
            <mxPoint x="320" y="710" as="sourcePoint" />
            <mxPoint x="340" y="710" as="targetPoint" />
            <Array as="points">
              <mxPoint x="320" y="700" />
              <mxPoint x="340" y="700" />
            </Array>
          </mxGeometry>
        </mxCell>
        <mxCell id="6YQao_bfGPs_BtrnV_QT-56" value="" style="edgeStyle=orthogonalEdgeStyle;rounded=0;orthogonalLoop=1;jettySize=auto;html=1;endArrow=none;startFill=0;" edge="1" parent="1">
          <mxGeometry relative="1" as="geometry">
            <mxPoint x="320" y="710" as="sourcePoint" />
            <mxPoint x="120" y="700" as="targetPoint" />
            <Array as="points">
              <mxPoint x="120" y="710" />
            </Array>
          </mxGeometry>
        </mxCell>
        <mxCell id="6YQao_bfGPs_BtrnV_QT-57" value="" style="endArrow=classic;html=1;rounded=0;entryX=0;entryY=0.5;entryDx=0;entryDy=0;" edge="1" parent="1" target="cdUcmmIa8sY7cMpKoN9_-163">
          <mxGeometry width="50" height="50" relative="1" as="geometry">
            <mxPoint x="300" y="770" as="sourcePoint" />
            <mxPoint x="150" y="444" as="targetPoint" />
            <Array as="points">
              <mxPoint x="370" y="770" />
              <mxPoint x="370" y="500" />
              <mxPoint x="120" y="500" />
              <mxPoint x="120" y="540" />
            </Array>
          </mxGeometry>
        </mxCell>
        <mxCell id="6YQao_bfGPs_BtrnV_QT-58" value="" style="edgeStyle=orthogonalEdgeStyle;rounded=0;orthogonalLoop=1;jettySize=auto;html=1;exitX=1;exitY=0.5;exitDx=0;exitDy=0;entryX=0;entryY=0.5;entryDx=0;entryDy=0;" edge="1" parent="1" source="cdUcmmIa8sY7cMpKoN9_-168" target="cdUcmmIa8sY7cMpKoN9_-174">
          <mxGeometry relative="1" as="geometry">
            <mxPoint x="310" y="444" as="sourcePoint" />
            <mxPoint x="420" y="444" as="targetPoint" />
            <Array as="points">
              <mxPoint x="370" y="540" />
              <mxPoint x="370" y="434" />
            </Array>
          </mxGeometry>
        </mxCell>
      </root>
    </mxGraphModel>
  </diagram>
</mxfile>
